<?xml version="1.0" encoding="UTF-8"?>
<svg width="41px" height="36px" viewBox="0 0 41 36" version="1.1" xmlns="http://www.w3.org/2000/svg" xmlns:xlink="http://www.w3.org/1999/xlink">
    <!-- Generator: Sketch 48.2 (47327) - http://www.bohemiancoding.com/sketch -->
    <title>info</title>
    <desc>Created with Sketch.</desc>
    <defs>
        <path d="M17.288527,6.03552762 C18.2452799,4.45819148 19.9471938,3.5 21.782295,3.5 C23.6173962,3.5 25.3193101,4.45819148 26.276063,6.03552762 L41.1127784,30.8046963 C42.0455941,32.4201203 42.0511636,34.4092069 41.1274088,36.0298294 C40.203654,37.6504518 38.4893219,38.6591945 36.604795,38.679802 L6.94056156,38.6796963 C5.07526811,38.6591945 3.36093597,37.6504518 2.43718118,36.0298294 C1.51342639,34.4092069 1.51899583,32.4201203 2.466027,30.7805276 L17.288527,6.03552762 Z M20.032295,15.929802 L20.032295,22.929802 C20.032295,23.8963003 20.8157967,24.679802 21.782295,24.679802 C22.7487933,24.679802 23.532295,23.8963003 23.532295,22.929802 L23.532295,15.929802 C23.532295,14.9633037 22.7487933,14.179802 21.782295,14.179802 C20.8157967,14.179802 20.032295,14.9633037 20.032295,15.929802 Z M20.5448581,29.4172389 C21.2282756,30.1006564 22.3363143,30.1006564 23.0197319,29.4172389 C23.7031494,28.7338214 23.7031494,27.6257827 23.0197319,26.9423651 C22.3363143,26.2589476 21.2282756,26.2589476 20.5448581,26.9423651 C19.8614406,27.6257827 19.8614406,28.7338214 20.5448581,29.4172389 Z" id="path-1"></path>
    </defs>
    <g id="logged-out---distortion-copy" stroke="none" stroke-width="1" fill="none" fill-rule="evenodd" transform="translate(-193.000000, -1340.000000)">
        <g id="article-content" transform="translate(189.000000, 1334.000000)">
            <g id="alert-triangle" transform="translate(3.000000, 3.000000)">
                <mask id="mask-2" fill="white">
                    <use xlink:href="#path-1"></use>
                </mask>
                <use id="Combined-Shape" fill="#000000" fill-rule="nonzero" xlink:href="#path-1"></use>
                <g id="COLOR/-black" mask="url(#mask-2)" fill="#000000" fill-rule="evenodd">
                    <rect id="Rectangle" x="0" y="0" width="42" height="42"></rect>
                </g>
            </g>
        </g>
    </g>
</svg>